<svg width="201" height="171" viewBox="0 0 201 171" fill="none" xmlns="http://www.w3.org/2000/svg">
<path d="M9.76665 87.323C9.02063 87.0026 8.29195 87.019 7.5806 87.3723C6.86432 87.7228 6.25866 88.3324 5.76362 89.2013C5.40921 89.8233 5.20136 90.4177 5.14006 90.9844C5.07382 91.5483 5.13929 92.0531 5.33648 92.499C5.53154 92.9371 5.84382 93.2785 6.27332 93.5232C6.6337 93.7285 6.99253 93.8218 7.34981 93.803C7.70991 93.7793 8.05757 93.6799 8.39281 93.5047C8.72592 93.3217 9.04313 93.1036 9.34444 92.8502C9.64082 92.594 9.91041 92.3389 10.1532 92.0849L11.3821 90.8232C11.7762 90.4069 12.2194 90.0022 12.7115 89.609C13.2036 89.2159 13.7388 88.8963 14.3171 88.6503C14.8954 88.4043 15.5048 88.2873 16.1455 88.2992C16.7889 88.3061 17.4513 88.5036 18.1325 88.8918C18.9915 89.3812 19.6277 90.0379 20.041 90.862C20.4571 91.6811 20.6186 92.6199 20.5255 93.6786C20.4353 94.7323 20.0526 95.8515 19.3775 97.0364C18.7306 98.1718 17.9907 99.0516 17.1577 99.6756C16.3248 100.3 15.444 100.658 14.5153 100.75C13.5816 100.839 12.644 100.648 11.7026 100.177L13.0105 97.8816C13.5838 98.1494 14.1417 98.2319 14.6843 98.129C15.2247 98.0184 15.7229 97.7693 16.1791 97.3819C16.6332 96.9866 17.0276 96.4953 17.3623 95.9078C17.7308 95.2611 17.9572 94.6283 18.0417 94.0094C18.1241 93.3828 18.0656 92.8198 17.8662 92.3204C17.6619 91.8181 17.3129 91.4264 16.8193 91.1451C16.37 90.8892 15.9291 90.808 15.4965 90.9015C15.0667 90.9902 14.6343 91.1983 14.1992 91.5258C13.7669 91.8484 13.3244 92.2405 12.8718 92.702L11.3621 94.2155C10.3394 95.2415 9.30464 95.9271 8.25782 96.2724C7.21382 96.6127 6.16359 96.4819 5.10712 95.8799C4.23332 95.3821 3.6056 94.7105 3.22397 93.8653C2.84234 93.0201 2.70198 92.09 2.80289 91.0751C2.89886 90.0573 3.23655 89.0399 3.81598 88.023C4.40103 86.9961 5.09736 86.1929 5.90497 85.6133C6.71539 85.0287 7.56594 84.6894 8.45661 84.5952C9.34235 84.4983 10.1981 84.672 11.0239 85.1163L9.76665 87.323ZM27.6477 84.7501C26.8558 85.7391 25.9499 86.4113 24.9302 86.7666C23.9096 87.114 22.8496 87.1605 21.7503 86.9062C20.651 86.6519 19.5891 86.1146 18.5646 85.2942C17.5268 84.4632 16.7672 83.5346 16.2858 82.5086C15.8 81.4791 15.6173 80.4302 15.7376 79.3618C15.8579 78.2935 16.3033 77.2782 17.074 76.3157C17.6955 75.5396 18.3937 74.9631 19.1685 74.5864C19.9389 74.2061 20.7305 74.0356 21.5433 74.075C22.3597 74.11 23.14 74.3673 23.8842 74.8468L22.334 76.7827C21.7698 76.5056 21.162 76.4192 20.5106 76.5237C19.8628 76.6236 19.285 76.9907 18.7771 77.6249C18.3332 78.1793 18.0907 78.7822 18.0495 79.4335C18.0075 80.0768 18.1625 80.7286 18.5145 81.389C18.862 82.0458 19.3995 82.6654 20.1268 83.2478C20.8719 83.8445 21.6056 84.2463 22.3278 84.4534C23.05 84.6605 23.7248 84.6768 24.3522 84.5023C24.9832 84.3233 25.5242 83.9522 25.9753 83.389C26.2772 83.012 26.4819 82.6154 26.5894 82.1993C26.6961 81.7752 26.7021 81.3542 26.6073 80.9362C26.5161 80.5138 26.3202 80.113 26.0196 79.734L27.5698 77.7981C28.1738 78.3982 28.5914 79.0857 28.8227 79.8604C29.0539 80.6352 29.0766 81.4431 28.8907 82.2842C28.7084 83.1209 28.2941 83.9429 27.6477 84.7501ZM32.6541 78.4111L23.5148 69.0385L25.2783 67.3189L26.7301 68.8078L26.8278 68.7126C26.5067 68.0416 26.421 67.3514 26.5706 66.6421C26.7203 65.9248 27.0697 65.2984 27.6189 64.7629C27.7328 64.6518 27.871 64.525 28.0335 64.3824C28.2001 64.2358 28.3341 64.125 28.4355 64.0499L30.1372 65.7951C30.0441 65.8461 29.8921 65.9507 29.6812 66.1088C29.4663 66.2628 29.2653 66.431 29.0782 66.6135C28.647 67.0339 28.3518 67.5003 28.1926 68.0126C28.0336 68.5169 28.0131 69.0249 28.1312 69.5367C28.2454 70.0444 28.5008 70.5016 28.8975 70.9084L34.4786 76.632L32.6541 78.4111ZM43.6094 69.36C42.6303 70.0999 41.6062 70.5212 40.5372 70.624C39.4683 70.7267 38.4272 70.527 37.414 70.025C36.4009 69.523 35.4866 68.7325 34.6714 67.6536C33.8527 66.5702 33.3385 65.4704 33.1288 64.3541C32.9191 63.2378 33.0096 62.1795 33.4003 61.1792C33.791 60.1789 34.4759 59.3088 35.4551 58.5689C36.4342 57.829 37.4583 57.4077 38.5272 57.305C39.5962 57.2023 40.639 57.4042 41.6556 57.9107C42.6722 58.4173 43.5898 59.2123 44.4085 60.2957C45.2238 61.3746 45.7345 62.4699 45.9408 63.5817C46.1471 64.6934 46.0549 65.7495 45.6642 66.7497C45.2735 67.75 44.5886 68.6201 43.6094 69.36ZM42.3265 67.6482C42.9612 67.1686 43.3603 66.6035 43.5238 65.9529C43.6874 65.3023 43.6582 64.6229 43.4363 63.9146C43.219 63.2029 42.8568 62.5116 42.3499 61.8407C41.8463 61.1743 41.2819 60.6394 40.6566 60.236C40.0323 59.8246 39.3833 59.6065 38.7093 59.5816C38.0353 59.5568 37.381 59.7841 36.7464 60.2637C36.1072 60.7467 35.7053 61.3175 35.5407 61.976C35.3805 62.6312 35.4108 63.3169 35.6316 64.0331C35.8535 64.7414 36.2162 65.4287 36.7197 66.0951C37.2267 66.766 37.7906 67.3049 38.4114 67.7117C39.0367 68.1152 39.6846 68.327 40.3552 68.3473C41.0302 68.3642 41.6873 68.1312 42.3265 67.6482ZM44.0261 47.5941L52.8812 62.6357L50.6852 63.9285L41.8301 48.8869L44.0261 47.5941ZM50.2238 44.2812L58.1541 59.8301L55.884 60.9879L47.9537 45.439L50.2238 44.2812ZM68.797 41.6614L69.4444 43.6017L62.6614 45.8649L62.014 43.9246L68.797 41.6614ZM62.8404 40.3425L65.2577 39.536L69.1771 51.2829C69.3336 51.7518 69.5214 52.0814 69.7407 52.2718C69.9581 52.4568 70.1917 52.5556 70.4415 52.5681C70.6948 52.5734 70.9536 52.532 71.2177 52.4439C71.4117 52.3791 71.577 52.309 71.7135 52.2335C71.85 52.158 71.956 52.0987 72.0315 52.0555L73.1343 53.9068C73.0122 54.0074 72.8307 54.1279 72.59 54.2681C72.3511 54.4137 72.0385 54.5539 71.6522 54.6888C71.0198 54.9118 70.3892 54.9964 69.7603 54.9427C69.1314 54.889 68.5645 54.6708 68.0595 54.2883C67.5545 53.9057 67.177 53.3398 66.9271 52.5907L62.8404 40.3425ZM80.9929 52.6298C79.789 52.8683 78.6837 52.8005 77.6771 52.4265C76.6704 52.0525 75.8208 51.4186 75.1282 50.5248C74.4356 49.631 73.958 48.5208 73.6952 47.1943C73.4313 45.8623 73.4485 44.6483 73.7469 43.5524C74.0453 42.4564 74.5885 41.5437 75.3765 40.8141C76.1645 40.0846 77.1605 39.6006 78.3644 39.3621C79.5682 39.1236 80.6735 39.1913 81.6801 39.5653C82.6868 39.9393 83.537 40.576 84.2306 41.4754C84.9243 42.3748 85.4031 43.4905 85.667 44.8226C85.9298 46.1491 85.9115 47.3575 85.612 48.4478C85.3125 49.5382 84.7687 50.4481 83.9807 51.1777C83.1927 51.9072 82.1967 52.3913 80.9929 52.6298ZM80.5855 50.5297C81.3658 50.3751 81.9715 50.0408 82.4025 49.5268C82.8336 49.0128 83.1038 48.3887 83.2132 47.6546C83.3282 46.9193 83.304 46.1393 83.1406 45.3144C82.9783 44.4951 82.7038 43.7675 82.3172 43.1317C81.935 42.4891 81.4462 42.0097 80.8506 41.6932C80.255 41.3768 79.5671 41.2959 78.7868 41.4505C78.0009 41.6062 77.3902 41.9444 76.9547 42.4651C76.5248 42.9846 76.2528 43.6148 76.139 44.3556C76.0295 45.0898 76.056 45.8665 76.2183 46.6858C76.3817 47.5107 76.6539 48.2416 77.035 48.8785C77.4216 49.5144 77.9122 49.9877 78.5066 50.2986C79.1067 50.6083 79.7996 50.6854 80.5855 50.5297ZM106.086 40.7851L103.768 41.143C103.678 40.8455 103.531 40.5609 103.327 40.2893C103.128 40.0178 102.855 39.7929 102.506 39.6147C102.158 39.4365 101.719 39.3416 101.191 39.3299C100.47 39.3139 99.8639 39.4625 99.3739 39.7756C98.8841 40.083 98.6335 40.4895 98.6223 40.9951C98.6127 41.4325 98.7668 41.7882 99.0846 42.0624C99.4025 42.3365 99.9203 42.5668 100.638 42.7532L102.706 43.2763C103.904 43.5813 104.793 44.03 105.37 44.6225C105.948 45.215 106.227 45.9742 106.207 46.9001C106.189 47.684 105.947 48.3777 105.479 48.9811C105.016 49.579 104.378 50.0422 103.564 50.3709C102.755 50.6997 101.823 50.8524 100.766 50.829C99.3005 50.7966 98.1117 50.4577 97.1996 49.8123C96.2877 49.1613 95.7394 48.2541 95.5549 47.0906L98.0257 46.7702C98.1648 47.4155 98.4694 47.9081 98.9392 48.2482C99.4092 48.5825 100.028 48.7582 100.794 48.7751C101.63 48.7936 102.301 48.6351 102.808 48.2997C103.316 47.9586 103.575 47.5352 103.587 47.0297C103.596 46.6207 103.45 46.2736 103.149 45.9885C102.854 45.7035 102.396 45.4831 101.774 45.3272L99.5698 44.7925C98.3547 44.4872 97.4613 44.0241 96.8897 43.4033C96.3237 42.7827 96.051 42.0066 96.0717 41.075C96.0888 40.3025 96.3196 39.6313 96.7641 39.0614C97.2086 38.4916 97.8151 38.0532 98.5834 37.7462C99.3519 37.4336 100.227 37.2882 101.21 37.3099C102.625 37.3412 103.731 37.6726 104.53 38.3041C105.329 38.9299 105.848 39.7569 106.086 40.7851ZM114.407 52.2002C113.135 51.984 112.086 51.5262 111.26 50.8267C110.44 50.1226 109.866 49.2324 109.536 48.1562C109.212 47.0753 109.164 45.8655 109.392 44.5268C109.617 43.2048 110.061 42.0816 110.725 41.1572C111.395 40.2336 112.224 39.5647 113.21 39.1504C114.203 38.737 115.298 38.6322 116.497 38.8359C117.225 38.9597 117.911 39.2001 118.553 39.5572C119.196 39.9142 119.745 40.3965 120.2 41.0042C120.656 41.6119 120.971 42.3542 121.145 43.2309C121.319 44.102 121.307 45.123 121.108 46.2937L120.957 47.1843L110.698 45.4403L111.017 43.5582L118.815 44.8837C118.927 44.2227 118.892 43.6145 118.71 43.0591C118.529 42.4981 118.22 42.0277 117.783 41.648C117.351 41.2692 116.811 41.0246 116.161 40.9141C115.455 40.7941 114.81 40.8631 114.224 41.1208C113.645 41.374 113.166 41.7535 112.786 42.2595C112.412 42.7608 112.171 43.3336 112.061 43.9778L111.811 45.4481C111.665 46.3108 111.691 47.0703 111.891 47.7266C112.096 48.384 112.446 48.9189 112.941 49.3315C113.436 49.7385 114.051 50.0044 114.785 50.1291C115.261 50.2101 115.707 50.2167 116.121 50.1489C116.537 50.0755 116.912 49.9258 117.244 49.6999C117.576 49.474 117.852 49.1723 118.072 48.7947L120.377 49.6274C120.068 50.2952 119.622 50.8505 119.039 51.2932C118.463 51.7313 117.781 52.0332 116.992 52.1987C116.21 52.3597 115.348 52.3602 114.407 52.2002ZM127.964 55.6469C126.741 55.2381 125.775 54.6247 125.066 53.8067C124.364 52.985 123.932 52.0172 123.771 50.903C123.618 49.7854 123.756 48.5825 124.186 47.2946C124.611 46.0228 125.223 44.9812 126.021 44.1696C126.825 43.3599 127.746 42.826 128.785 42.5681C129.829 42.3119 130.928 42.3765 132.081 42.7619C132.782 42.996 133.422 43.3388 134.002 43.7902C134.582 44.2416 135.051 44.8025 135.408 45.473C135.765 46.1435 135.962 46.9252 135.999 47.8182C136.038 48.7058 135.869 49.7128 135.493 50.8391L135.206 51.6959L125.336 48.3978L125.942 46.5871L133.443 49.0938C133.655 48.4579 133.714 47.8515 133.619 47.2747C133.526 46.6925 133.293 46.1802 132.92 45.738C132.552 45.2975 132.055 44.9728 131.43 44.7639C130.751 44.537 130.103 44.506 129.484 44.6708C128.873 44.8321 128.341 45.1335 127.888 45.5752C127.442 46.0132 127.116 46.5421 126.909 47.1619L126.436 48.5765C126.159 49.4063 126.068 50.1609 126.165 50.8402C126.267 51.5212 126.53 52.1035 126.956 52.5872C127.383 53.0654 127.95 53.4225 128.656 53.6584C129.114 53.8115 129.553 53.8864 129.973 53.8831C130.396 53.8744 130.788 53.784 131.151 53.6118C131.514 53.4396 131.834 53.1838 132.109 52.8444L134.258 54.0211C133.85 54.6335 133.324 55.1137 132.681 55.4618C132.044 55.8063 131.324 55.9998 130.519 56.0423C129.721 56.0812 128.87 55.9494 127.964 55.6469ZM141.608 61.1427L148.794 50.2006L150.839 51.5434L149.669 53.3243L149.805 53.4132C150.429 52.9598 151.11 52.7344 151.849 52.7372C152.592 52.7353 153.324 52.9713 154.046 53.4454C154.777 53.9258 155.277 54.4991 155.547 55.1654C155.821 55.8349 155.88 56.5467 155.725 57.3011L155.839 57.376C156.483 56.9634 157.205 56.7709 158.002 56.7985C158.803 56.8213 159.597 57.0916 160.386 57.6094C161.378 58.2613 161.984 59.1041 162.202 60.138C162.425 61.1749 162.125 62.3203 161.301 63.5741L156.483 70.9116L154.353 69.5127L159.04 62.3747C159.527 61.6338 159.678 60.9646 159.492 60.367C159.307 59.7695 158.934 59.2867 158.374 58.9186C157.68 58.4632 157.001 58.3229 156.336 58.4977C155.673 58.6677 155.124 59.0852 154.687 59.7501L150.107 66.7242L147.984 65.33L152.761 58.0567C153.151 57.463 153.279 56.8641 153.146 56.2599C153.012 55.6556 152.649 55.1586 152.055 54.7687C151.651 54.5036 151.208 54.3656 150.726 54.3547C150.252 54.3423 149.787 54.455 149.331 54.6929C148.881 54.934 148.493 55.3015 148.169 55.7954L143.738 62.5416L141.608 61.1427ZM162.842 77.0663C161.965 76.2073 161.397 75.2569 161.138 74.2149C160.878 73.1729 160.921 72.1137 161.268 71.0374C161.615 69.9611 162.261 68.94 163.208 67.9741C164.158 67.0042 165.17 66.333 166.243 65.9605C167.316 65.5879 168.376 65.5209 169.423 65.7593C170.47 65.9978 171.432 66.5465 172.308 67.4054C173.185 68.2644 173.753 69.2148 174.013 70.2568C174.272 71.2989 174.227 72.36 173.876 73.4404C173.526 74.5207 172.875 75.5459 171.925 76.5158C170.978 77.4817 169.971 78.1489 168.902 78.5173C167.833 78.8858 166.775 78.9508 165.728 78.7124C164.68 78.4739 163.719 77.9252 162.842 77.0663ZM164.345 75.5443C164.913 76.101 165.531 76.4121 166.199 76.4776C166.867 76.5432 167.534 76.4138 168.202 76.0896C168.874 75.7694 169.504 75.309 170.092 74.7083C170.677 74.1118 171.122 73.4744 171.429 72.7963C171.744 72.1181 171.863 71.4439 171.788 70.7737C171.713 70.1035 171.391 69.49 170.823 68.9333C170.251 68.3726 169.627 68.0595 168.951 67.9941C168.28 67.9326 167.606 68.064 166.93 68.3883C166.263 68.7125 165.637 69.1729 165.052 69.7694C164.463 70.3701 164.014 71.0075 163.703 71.6816C163.397 72.3597 163.283 73.0319 163.362 73.698C163.445 74.3682 163.773 74.9836 164.345 75.5443ZM169.244 83.2744L179.522 75.1667L181.047 77.1005L179.414 78.3884L179.499 78.4955C180.2 78.2465 180.895 78.2335 181.585 78.4565C182.283 78.6805 182.869 79.0936 183.344 79.6958C183.443 79.8207 183.554 79.9714 183.679 80.148C183.807 80.329 183.904 80.4739 183.968 80.5825L182.054 82.0922C182.013 81.9943 181.925 81.8322 181.79 81.6059C181.659 81.376 181.513 81.1585 181.351 80.9533C180.978 80.4805 180.545 80.1381 180.052 79.9262C179.567 79.7152 179.064 79.6417 178.543 79.7056C178.026 79.7659 177.545 79.972 177.098 80.3239L170.822 85.2752L169.244 83.2744ZM177.167 95.2264C176.501 94.1218 176.163 93.0283 176.154 91.9457C176.153 90.8651 176.452 89.8486 177.053 88.8963C177.66 87.9459 178.546 87.1201 179.709 86.419C180.857 85.7266 181.998 85.3305 183.132 85.2307C184.269 85.1357 185.317 85.3269 186.275 85.8043C187.236 86.2865 188.03 87.0483 188.658 88.0896C189.039 88.7221 189.304 89.3983 189.453 90.1181C189.601 90.8379 189.594 91.5687 189.431 92.3106C189.268 93.0525 188.911 93.7753 188.36 94.479C187.814 95.1798 187.032 95.8368 186.015 96.4499L185.242 96.9164L179.869 88.0045L181.504 87.0188L185.587 93.7921C186.161 93.446 186.599 93.0226 186.901 92.5221C187.208 92.0186 187.363 91.4775 187.366 90.8987C187.371 90.3247 187.204 89.7555 186.864 89.1911C186.494 88.578 186.02 88.1337 185.443 87.8582C184.873 87.5846 184.273 87.4689 183.642 87.5112C183.018 87.5554 182.426 87.7462 181.867 88.0836L180.59 88.8537C179.84 89.3054 179.282 89.8211 178.915 90.4007C178.551 90.9852 178.374 91.5994 178.384 92.2435C178.399 92.8846 178.599 93.5239 178.983 94.1614C179.232 94.575 179.518 94.9169 179.84 95.1871C180.167 95.4543 180.525 95.6402 180.913 95.7446C181.301 95.849 181.709 95.8613 182.139 95.7814L183.012 98.0714C182.304 98.2727 181.592 98.2971 180.877 98.1447C180.169 97.9942 179.495 97.674 178.855 97.1843C178.222 96.6965 177.66 96.0438 177.167 95.2264Z" fill="#0F0F0F"/>
</svg>
